<svg clip-rule="evenodd" fill-rule="evenodd" stroke-linejoin="round" stroke-miterlimit="2" viewBox="0 0 560 400" xmlns="http://www.w3.org/2000/svg"><path d="m0 0 32.564-64.661-68.456-64.692z" fill="#008c44" fill-rule="nonzero" transform="matrix(.6236938651 0 0 -.6236938651 439.68923485 159.654915048)"/><path d="m0 0 32.516-64.661-68.411-64.692z" fill="#f47920" fill-rule="nonzero" transform="matrix(.6236938651 0 0 -.6236938651 425.6251926 159.654915048)"/><path d="m0 0 32.468 116.974h51.908c16.223 0 27.06-2.568 32.573-7.86 5.474-5.25 6.528-13.819 3.229-25.863-1.996-7.095-5.029-13.051-9.196-17.757-4.133-4.714-9.584-8.441-16.296-11.182 5.694-1.369 9.317-4.088 10.941-8.164 1.616-4.076 1.429-10.02-.533-17.813l-3.948-16.339-.012-.442c-1.139-4.575-.802-7.024 1.055-7.223l-1.196-4.331h-35.116c.119 2.752.337 5.213.57 7.279.255 2.115.57 3.753.882 4.879l3.274 11.681c1.649 6.075 1.751 10.313.221 12.753-1.545 2.506-5.004 3.739-10.463 3.739h-14.757l-11.254-40.331zm52.906 66.691h15.806c5.539 0 9.626.791 12.146 2.426 2.532 1.65 4.411 4.436 5.514 8.467 1.142 4.099.861 6.956-.777 8.581-1.636 1.649-5.55 2.452-11.704 2.452h-14.899zm163.645 19.627-23.935-86.317h-29.087l3.575 12.645c-5.12-5.029-10.358-8.847-15.639-11.288-5.238-2.483-10.766-3.705-16.585-3.705-4.811 0-8.941.874-12.266 2.606-3.365 1.726-5.871 4.351-7.557 7.812-1.497 3.03-2.149 6.772-1.894 11.242.27 4.399 1.823 11.82 4.703 22.212l12.404 44.793h31.816l-12.378-44.583c-1.809-6.525-2.24-11.112-1.358-13.609.918-2.52 3.37-3.821 7.35-3.821 4.008 0 7.379 1.451 10.162 4.413 2.824 2.937 5.003 7.317 6.642 13.145l12.277 44.455zm-11.543-86.318 32.434 116.974h44.617c9.845 0 17.465-.581 22.899-1.856 5.422-1.222 9.674-3.206 12.835-6.004 3.96-3.66 6.386-8.189 7.384-13.623.938-5.434.383-11.764-1.672-19.197-3.634-13.076-10.004-23.096-19.08-30.098-9.105-6.911-20.37-10.383-33.815-10.383h-20.88l-9.918-35.813zm52.628 64.38h11.22c7.254 0 12.353.896 15.341 2.625 2.891 1.752 4.946 4.865 6.199 9.289 1.253 4.485.93 7.62-.964 9.372-1.822 1.743-6.48 2.625-13.932 2.625h-11.197zm103.297-64.38.323 8.198c-5.131-3.841-10.327-6.744-15.551-8.558-5.201-1.848-10.74-2.786-16.673-2.786-9.012 0-15.296 2.449-18.93 7.188-3.589 4.748-4.178 11.566-1.729 20.262 2.344 8.584 6.514 14.902 12.529 18.941 5.981 4.088 15.97 7.013 29.985 8.884 1.777.289 4.158.522 7.14.882 10.361 1.199 16.178 3.96 17.431 8.464.652 2.466.255 4.286-1.276 5.403-1.477 1.159-4.238 1.729-8.223 1.729-3.308 0-5.97-.686-8.153-2.112-2.18-1.44-3.807-3.543-4.909-6.503h-31.02c2.801 9.718 8.524 17.059 17.116 21.969 8.56 4.995 19.848 7.398 33.828 7.398 6.574 0 12.461-.615 17.666-1.95 5.213-1.278 9.023-3.101 11.494-5.306 3.042-2.753 4.842-5.891 5.355-9.36.592-3.461-.057-8.422-1.871-14.913l-13.343-48.124c-.428-1.576-.51-2.982-.277-4.261.277-1.219.81-2.262 1.752-3.007l-.718-2.438zm7.733 38.543c-3.379-1.358-7.77-2.659-13.227-4.088-8.569-2.299-13.391-5.366-14.434-9.161-.723-2.441-.431-4.32.763-5.749 1.176-1.358 3.22-2.044 6.1-2.044 5.281 0 9.522 1.335 12.682 3.971 3.169 2.671 5.539 6.863 7.197 12.646.29 1.23.545 2.114.709 2.775zm24.456-72.556 7.061 25.549h9.105c3.041 0 5.434.601 7.129 1.695 1.72 1.137 2.891 3.053 3.566 5.632.337 1.137.544 2.333.686 3.691.09 1.44.09 2.962 0 4.725l-4.859 79.039h32.205l-.499-52.373 28.114 52.373h29.948l-49.703-85.901c-5.641-9.601-9.74-16.197-12.342-19.797-2.568-3.555-5.006-6.319-7.373-8.19-3.067-2.588-6.491-4.422-10.188-5.49-3.704-1.092-9.345-1.636-16.928-1.636-2.183 0-4.694.042-7.41.184-2.696.105-5.573.267-8.512.499z" fill="#1b3281" transform="matrix(.6236938651 0 0 -.6236938651 100.0000422765 225.657898475)"/></svg>